<svg width="1024" height="1024" viewBox="0 0 1024 1024" fill="none" xmlns="http://www.w3.org/2000/svg">
<rect width="1024" height="1024" fill="#0EA5E9"/>
<path d="M725.233 311.416C692.809 276.081 664.474 161.992 647.912 82.199C642.191 54.6347 604.12 47.6655 589.422 71.6753C533.638 162.796 436.817 314.7 379.999 368.147C322.919 421.841 165.547 509.137 72.1943 558.742C47.5648 571.829 51.7661 609.793 78.5418 617.6C155.622 640.074 266.212 677.106 298.767 712.583C331.191 747.919 359.526 862.008 376.088 941.801C381.809 969.365 419.88 976.334 434.578 952.325C490.362 861.204 587.183 709.3 644.001 655.853C701.081 602.159 858.453 514.863 951.806 465.258C976.435 452.171 972.234 414.207 945.458 406.4C868.378 383.926 757.788 346.894 725.233 311.416Z" fill="black"/>
<path d="M483.264 691.002C593.538 664.315 683.297 531.697 660.409 418.559C648.05 357.479 598.467 318.128 536.532 331.67C366.095 368.955 268.232 743.289 483.264 691.002Z" fill="#0EA5E9"/>
</svg>
