<svg width="1024" height="1024" viewBox="0 0 1024 1024" fill="none" xmlns="http://www.w3.org/2000/svg">
<g clip-path="url(#clip0_14_2)">
<rect width="1024" height="1024" rx="200" fill="#0EA5E9"/>
<path d="M684.419 349.809C658.201 321.237 635.29 228.986 621.898 164.466C617.272 142.177 586.488 136.542 574.603 155.956C529.497 229.636 451.207 352.464 405.265 395.681C359.11 439.098 231.86 509.685 156.376 549.795C136.461 560.377 139.858 591.075 161.508 597.387C223.835 615.56 313.258 645.504 339.581 674.191C365.799 702.763 388.71 795.015 402.102 859.534C406.728 881.823 437.512 887.458 449.397 868.044C494.504 794.364 572.793 671.536 618.735 628.318C664.89 584.902 792.14 514.315 867.624 474.205C887.539 463.623 884.142 432.925 862.492 426.613C800.165 408.44 710.742 378.496 684.419 349.809Z" fill="black"/>
<path d="M488.765 656.74C577.931 635.161 650.51 527.927 632.003 436.444C622.009 387.056 581.917 355.236 531.837 366.186C394.022 396.335 314.891 699.019 488.765 656.74Z" fill="#0EA5E9"/>
</g>
<defs>
<clipPath id="clip0_14_2">
<rect width="1024" height="1024" fill="white"/>
</clipPath>
</defs>
</svg>
